<svg xmlns="http://www.w3.org/2000/svg" viewBox=" 595.3"><g fill="#7AA874"><path d="M 62.8125,310.78436 C 40.761654,306.34449 19.73523,290.45608 9.1880062,270.26353 3.8984465,260.13672 1.9297507,253.42121 1.0602398,242.53853 c -1.86753764,-23.37385 5.570729,-44.59396 20.9251072,-59.69578 7.041108,-6.92529 10.323196,-9.68318 15.097853,-12.6865 13.707585,-8.62225 15.965056,-10.54144 18.861833,-16.03537 4.964748,-9.41597 5.201069,-13.09194 4.815316,-74.90213 l -0.351052,-56.25 -2.619488,-6.873001 C 56.34909,12.315598 55.405433,8.6100542 55.692793,7.8612063 55.980153,7.1123585 59.070737,5.1731816 62.560758,3.5519244 68.357118,0.85927831 69.758117,0.59832403 78.75,0.5364671 c 6.961128,-0.0478869 11.490963,0.42857656 15.46875,1.6270561 9.59376,2.890532 9.37674,2.4070298 6.64597,14.8071348 -1.393186,6.326233 -1.538695,13.751551 -1.295236,66.09375 0.273357,58.771162 0.281138,58.979682 2.344446,62.837042 2.64365,4.9423 8.74524,10.35127 19.96107,17.69522 32.97367,21.59059 46.61194,46.56849 43.33315,79.36277 -1.57425,15.74556 -5.2476,25.23713 -14.72012,38.03533 -11.11533,15.0178 -32.65283,27.80606 -50.707768,30.1086 -10.984855,1.40089 -29.2067,1.24366 -36.967762,-0.31901 z m 31.073372,-1.40629 c 34.697548,-2.87554 62.862258,-27.82774 68.786438,-60.94057 3.30279,-18.46072 -1.88861,-40.38704 -13.54005,-57.1875 -5.48258,-7.90544 -18.11044,-19.33403 -30.32265,-27.44292 -10.65008,-7.07163 -17.6026,-13.33743 -20.21626,-18.21943 -1.001362,-1.87043 -1.281441,-14.68713 -1.40625,-64.35225 -0.139481,-55.504394 0.0084,-62.557966 1.407909,-67.171638 0.860072,-2.835243 1.428301,-5.2904547 1.262728,-5.456026 -0.165571,-0.1655711 -2.012615,0.5721421 -4.104543,1.639363 -2.091923,1.06722 -4.453117,1.940401 -5.247096,1.940401 -0.793979,0 -1.443598,0.421875 -1.443598,0.9375 0,0.562624 -3.756209,0.9375 -9.393628,0.9375 -7.855074,0 -10.337727,-0.383621 -15.157806,-2.342195 -3.170297,-1.288207 -5.918467,-2.1879044 -6.107044,-1.9993262 -0.188578,0.1885771 0.728672,4.0405312 2.038334,8.5598972 l 2.381201,8.21703 0.06986,55.886453 c 0.03843,30.737551 0.408409,56.310671 0.822187,56.829171 0.919354,1.15202 0.124412,7.03647 -0.950571,7.03647 -0.424683,0 -0.587626,-1.58203 -0.362093,-3.51563 0.225532,-1.93359 -0.410404,-0.48133 -1.413192,3.22725 -1.002788,3.70859 -2.439073,7.92734 -3.191745,9.375 -2.26784,4.3619 -10.701303,11.60372 -19.902563,17.09036 -11.107815,6.62348 -23.076273,20.1514 -28.3926036,32.09209 -4.9359238,11.08626 -6.0658445,16.94804 -6.1164891,31.73093 -0.044387,12.95618 0.092584,13.981 2.9203842,21.85057 7.2194065,20.0911 18.8443945,33.69787 36.8803665,43.1676 15.795508,8.29336 26.951646,10.07793 50.698772,8.10991 z m 6.043856,-7.62192 c -11.143243,-1.07134 -11.792628,-2.17065 -0.789103,-1.33581 4.769535,0.36185 8.671875,0.30984 8.671875,-0.11559 0,-0.97842 -1.5744,-1.05314 -21.5625,-1.02332 -22.397768,0.0334 -27.050553,0.19683 -31.40625,1.10318 -2.564827,0.5337 -3.453707,0.47561 -2.8125,-0.18378 2.178463,-2.24024 9.648102,-3.169 29.546927,-3.67378 17.728517,-0.44973 22.378003,-0.27845 29.030003,1.06942 4.35633,0.8827 8.32119,1.85251 8.81081,2.1551 0.93984,0.58085 -7.32824,3.03867 -9.73149,2.89286 -0.77344,-0.047 -5.16443,-0.44666 -9.757772,-0.88828 z m 26.306062,-16.1313 c 1.46875,-1.71883 3.75436,-3.76482 5.07913,-4.54664 1.32477,-0.78183 3.31824,-3.35651 4.42993,-5.72154 1.11169,-2.36502 2.59997,-4.64325 3.3073,-5.06273 0.70731,-0.41948 2.15331,-4.13769 3.21332,-8.26269 1.06001,-4.125 1.96329,-6.44531 2.00729,-5.15625 0.044,1.28906 -0.50964,4.55859 -1.23029,7.26562 -0.72064,2.70704 -0.95534,4.92188 -0.52156,4.92188 1.75575,0 3.9925,-14.25046 3.41408,-21.75125 -0.36166,-4.68995 -0.23696,-7.18364 0.34134,-6.82623 1.36062,0.84091 1.07187,15.11353 -0.43541,21.52162 -0.72451,3.08022 -1.14444,5.88008 -0.93318,6.22191 0.21127,0.34182 -0.24406,1.14283 -1.01181,1.78002 -0.76776,0.63718 -1.40996,0.79045 -1.42712,0.34059 -0.0397,-1.04142 -3.71881,3.33038 -3.71881,4.41899 0,0.44575 1.16016,0.35391 2.57813,-0.20407 3.88313,-1.52804 7.73437,-2.60731 7.73437,-2.16746 0,0.41924 -4.9739,2.69375 -10.3125,4.71578 -3.09425,1.17197 -3.13747,1.24515 -0.75846,1.28395 1.38754,0.0226 2.7524,-0.33035 3.03303,-0.78441 0.28062,-0.45406 1.53263,-1.02101 2.78224,-1.25988 1.62989,-0.31158 2.13537,-0.0783 1.78855,0.82555 -0.26591,0.69295 -1.20144,1.25989 -2.07898,1.25989 -0.87753,0 -2.41443,0.6194 -3.41532,1.37644 -2.178,1.64734 -1.47864,1.79284 2.10353,0.43759 l 2.63916,-0.99847 -3.20063,3.31112 c -2.83212,2.92987 -3.32806,3.13686 -4.30726,1.79773 -1.42781,-1.95263 -5.40868,-1.03589 -9.14168,2.10522 -3.92098,3.29929 -5.07374,2.8035 -1.95839,-0.84228 z m -24.04829,-1.46933 c 0,-0.46446 1.6875,-4.14421 3.75,-8.17721 2.0625,-4.03301 3.75,-8.08268 3.75,-8.99927 0,-0.9166 0.40276,-1.66654 0.89502,-1.66654 0.49226,0 1.18008,-1.58203 1.52849,-3.51563 0.34841,-1.93359 1.06108,-4.05391 1.58371,-4.71182 0.58058,-0.73086 0.74981,-4.83385 0.435,-10.54688 -0.28339,-5.14287 -0.1771,-9.35067 0.23619,-9.35067 1.08753,0 2.17746,14.16504 1.45622,18.92545 -0.83691,5.52377 -4.33201,15.12693 -5.83891,16.04301 -0.67827,0.41234 -1.23322,1.43009 -1.23322,2.26167 0,1.40703 -5.36827,10.58237 -6.19148,10.58237 -0.20406,0 -0.37102,-0.38002 -0.37102,-0.84448 z m -21.050692,-7.45736 c -0.734082,-2.31288 -0.288209,-12.32316 0.548891,-12.32316 0.361928,0 0.658051,1.89098 0.658051,4.20219 0,2.31121 0.279614,5.47528 0.621364,7.03125 0.678061,3.0872 -0.896476,4.02566 -1.828306,1.08972 z m -4.621076,-5.88441 c -2.12964,-10.4941 -2.521546,-14.24543 -1.585978,-15.181 0.718661,-0.71866 1.016049,-0.48333 1.036692,0.82037 0.01592,1.00547 0.435362,4.95947 0.932093,8.78666 0.853218,6.57385 0.591996,10.37745 -0.382807,5.57397 z m 66.006458,0.7524 c 4.41183,-2.30255 8.58817,-3.49096 8.20254,-2.3341 -0.19402,0.58208 -2.22943,1.6194 -4.52312,2.30515 -5.31749,1.5898 -6.6908,1.6006 -3.67942,0.029 z m -71.179181,-8.76776 c -1.787224,-12.00201 -2.383054,-21.29056 -1.323721,-20.63586 0.519449,0.32104 1.204041,4.92283 1.521315,10.22621 0.317276,5.30339 1.010415,11.10206 1.540313,12.88595 0.536529,1.80623 0.606764,3.60013 0.158501,4.0484 -0.448263,0.44825 -1.28859,-2.44293 -1.896408,-6.5247 z m 79.940531,3.27588 c 2.1764,-7.06102 2.75473,-10.79671 2.83869,-18.33633 0.0531,-4.76756 0.41293,-8.66991 0.79965,-8.67188 2.33564,-0.0118 -0.35804,22.84768 -3.20325,27.18394 -0.77516,1.18138 -0.84473,1.15327 -0.43509,-0.17573 z m -1.73033,-2.63677 c 2.23196,-11.11116 2.59904,-16.29777 1.60704,-22.70662 -0.57713,-3.72861 -0.86335,-6.96527 -0.63605,-7.19259 2.38323,-2.38322 2.46671,21.53316 0.0978,28.02421 -0.84679,2.32031 -1.32775,3.16406 -1.06881,1.875 z m -81.478498,0.17145 c -1.775985,-2.87361 -4.079945,-31.91258 -2.724165,-34.33523 0.64141,-1.14614 1.099758,2.4974 1.545133,12.28275 0.348266,7.65176 1.063221,15.76093 1.588788,18.02039 0.922537,3.96605 0.72864,5.87405 -0.409756,4.03209 z m 49.234928,-0.6402 c -0.15581,-1.03125 -0.21656,-6.33773 -0.13503,-11.79218 0.12025,-8.04403 -0.3138,-11.65373 -2.29802,-19.1111 -1.34544,-5.05666 -2.89155,-10.02594 -3.43578,-11.04285 -0.66886,-1.24977 -0.68142,-2.15701 -0.0388,-2.79966 0.64265,-0.64264 1.56195,1.13682 2.83691,5.49128 3.21891,10.99378 4.00317,17.27386 3.67288,29.41076 -0.1754,6.44531 -0.44639,10.875 -0.60219,9.84375 z m 1.75286,-0.67188 c 0,-0.71328 0.52493,-1.8218 1.1665,-2.46337 2.13405,-2.13405 2.10076,-21.04639 -0.0522,-29.67725 -1.8328,-7.3473 -1.89967,-9.19112 -0.2697,-7.4375 1.28181,1.37906 3.8512,17.16774 3.80395,23.375 -0.0541,7.11342 -1.99777,16.61642 -3.50099,17.11749 -0.63117,0.21039 -1.14754,-0.20108 -1.14754,-0.91437 z m 29.53125,-14.18777 c 0,-6.93975 0.30995,-12.13063 0.68877,-11.53529 0.83688,1.3152 0.77337,18.97212 -0.0791,21.99273 -0.33533,1.18817 -0.60968,-3.51768 -0.60968,-10.45744 z m -28.92475,4.83125 c 0.63003,-7.34171 -1.06201,-20.62091 -3.54838,-27.84765 -2.01659,-5.86132 -2.22017,-7.50475 -0.74719,-6.03177 3.4332,3.4332 6.87109,30.03315 4.76608,36.87657 -0.86696,2.81852 -0.93332,2.39585 -0.47051,-2.99715 z m -56.236421,-0.44086 c -1.538933,-12.03046 -1.720787,-20.38906 -0.63622,-29.24272 0.64195,-5.24045 1.597689,-9.79416 2.123863,-10.11935 0.617616,-0.3817 0.756097,0.5358 0.39073,2.58878 -1.17765,6.61716 -1.702991,25.94702 -0.882294,32.46392 0.469875,3.73114 0.568382,7.24653 0.218905,7.812 -0.349477,0.56546 -0.89622,-1.01072 -1.214984,-3.50263 z m -4.379372,-18.59324 c -0.821944,-4.89812 1.532366,-22.03125 3.027374,-22.03125 0.539466,0 0.689821,0.91231 0.34764,2.10937 -0.331631,1.16016 -1.032025,5.90625 -1.556433,10.54688 -0.945647,8.36827 -1.50427,11.24804 -1.818581,9.375 z m -29.924815,-5.9777 c -0.0792,-6.0585 3.224911,-20.77108 5.213027,-23.21259 1.343923,-1.65041 1.387784,-1.61737 0.791711,0.59654 -0.347068,1.28906 -1.425853,5.29687 -2.397301,8.90625 -0.971448,3.60937 -1.803134,8.46094 -1.848192,10.78125 -0.127007,6.54048 -1.678264,9.1228 -1.759245,2.92855 z m 5.353534,3.9307 C 33.7699,230.4735 34.849452,221.25 35.723671,221.25 c 0.486518,0 0.593456,2.32396 0.248052,5.39062 -0.641933,5.6994 -0.856528,6.4511 -1.489797,5.21863 z m -13.365559,-9.203 c 0.570331,-8.79941 3.665132,-19.58393 7.263846,-25.3125 3.908019,-6.22093 9.123445,-12.65625 10.257097,-12.65625 0.501295,0 -1.00329,2.12964 -3.34352,4.73255 -7.285048,8.10272 -10.460733,16.13272 -13.700319,34.64245 l -0.90245,5.15625 0.425346,-6.5625 z m 4.196133,3.29706 c 0,-3.36791 2.859738,-16.00923 4.786779,-21.15971 2.10839,-5.63518 9.08947,-16.85485 9.951201,-15.99312 0.317698,0.3177 -0.702458,2.3699 -2.267016,4.56045 -1.564558,2.19055 -3.770937,5.80993 -4.903065,8.04306 -2.551127,5.03212 -5.692899,17.07165 -5.692899,21.81565 0,1.94959 -0.421875,3.80544 -0.9375,4.12411 -0.515625,0.31868 -0.9375,-0.30702 -0.9375,-1.39044 z M 15.109035,223.59375 C 14.894594,213.07892 20.889897,197.3443 28.147284,189.375 l 3.841879,-4.21875 -3.70375,5.15625 c -6.928318,9.64539 -10.038166,17.33856 -11.931491,29.51618 -0.819714,5.27231 -1.191233,6.39594 -1.244887,3.76507 z m -3.177708,-5.39063 c 1.037348,-8.21855 5.014775,-18.54231 9.918732,-25.74493 2.677781,-3.93295 5.465583,-7.34863 6.195118,-7.5904 0.729534,-0.24176 -0.552851,2.04455 -2.849744,5.0807 -2.296894,3.03614 -4.893292,6.65885 -5.769774,8.05048 -1.993174,3.16462 -6.300659,17.85019 -6.300659,21.48091 0,1.48919 -0.381731,2.70762 -0.84829,2.70762 -0.46656,0 -0.621983,-1.79297 -0.345383,-3.98438 z M 63.75,184.23772 c 0,-1.91644 2.9429,-9.10732 3.499444,-8.55077 0.684302,0.6843 -1.866266,9.93805 -2.739178,9.93805 -0.418146,0 -0.760266,-0.62427 -0.760266,-1.38728 z m -28.226566,-2.41735 c 1.233201,-1.02699 2.498163,-1.61127 2.811025,-1.29841 0.665804,0.66581 -2.60704,3.24251 -4.060518,3.19685 -0.54598,-0.0172 0.01629,-0.87145 1.249493,-1.89844 z M 30.9375,182.1121 c 0,-0.45209 1.160156,-1.66667 2.578125,-2.69905 3.849639,-2.80282 4.923997,-3.35409 4.901858,-2.51526 -0.02754,1.04336 -7.479983,6.23848 -7.479983,5.21431 z m 33.28125,-10.5496 c 1.306434,-2.57813 2.797211,-4.6875 3.312836,-4.6875 0.515625,0 -0.131402,2.10937 -1.437836,4.6875 -1.306434,2.57812 -2.797211,4.6875 -3.312836,4.6875 -0.515625,0 0.131402,-2.10938 1.437836,-4.6875 z m -0.94669,-5.39063 c 0.36309,-0.90234 1.268319,-3.64453 2.011621,-6.09375 0.743301,-2.44921 1.781886,-4.45312 2.307966,-4.45312 0.526081,0 0.77234,0.31641 0.547244,0.70312 -0.225096,0.38672 -1.10553,3.12891 -1.956517,6.09375 -0.850989,2.96485 -2.002478,5.39063 -2.558865,5.39063 -0.589932,0 -0.73643,-0.68388 -0.351449,-1.64063 z m -2.776993,-4.6875 c 2.174446,-5.12807 3.177247,-8.49216 3.213783,-10.78125 0.02263,-1.41796 0.463025,-2.57812 0.97865,-2.57812 1.372424,0 1.164132,1.88124 -0.975169,8.80749 -1.051968,3.40589 -2.362728,6.19251 -2.912802,6.19251 -0.592525,0 -0.71661,-0.66864 -0.304462,-1.64063 z m 43.605693,-2.6898 c -2.95797,-2.48895 -6.190857,-7.64197 -5.332763,-8.50006 0.257812,-0.25782 1.171575,0.94155 2.030593,2.66524 0.85902,1.7237 2.89403,4.2828 4.52225,5.68691 1.62822,1.40409 2.67638,2.56425 2.32922,2.57812 -0.34717,0.0139 -1.94435,-1.07972 -3.5493,-2.43021 z m -44.709967,-3.8727 c 1.092951,-2.96484 2.12382,-4.68416 2.29082,-3.8207 0.269739,1.39465 -3.070634,9.21133 -3.936362,9.21133 -0.187903,0 0.55259,-2.42578 1.645542,-5.39063 z m 34.531248,2.46541 c -2.566354,-3.16479 -3.952264,-7.51658 -3.843471,-12.06859 0.06746,-2.82268 0.236726,-2.55324 1.197288,1.90597 0.615293,2.85638 2.073643,6.81189 3.240773,8.79003 2.586356,4.38354 2.328919,4.97783 -0.59459,1.37259 z m 3.70425,-0.22159 c -1.141547,-1.21513 -2.278369,-3.85185 -2.526263,-5.85938 l -0.450722,-3.65006 1.348903,4.06046 c 0.7419,2.23326 2.081503,4.86998 2.9769,5.85938 2.347161,2.59358 1.123501,2.22125 -1.348818,-0.4104 z m -9.970838,-5.29197 c -1.147977,-1.85747 -1.747533,-12.18622 -0.707376,-12.18622 0.527172,0 1.154392,2.84766 1.393824,6.32812 0.461922,6.71468 0.36327,7.55657 -0.686448,5.8581 z M 94.6875,119.0625 c 0,-10.48437 0.193659,-18.86885 0.43035,-18.63216 0.665531,0.66554 0.813159,36.45115 0.153094,37.11121 -0.320897,0.3209 -0.583444,-7.99468 -0.583444,-18.47905 z m -6.722924,-17.34375 c -0.235408,-6.703125 -0.190148,-12.609375 0.10058,-13.125 0.751706,-1.333206 1.594862,20.14099 0.901837,22.96875 -0.315921,1.28906 -0.76701,-3.14062 -1.002417,-9.84375 z M 91.643492,96.5625 C 91.25835,87.539062 91.008181,68.976562 91.087561,55.3125 l 0.144328,-24.84375 0.784402,26.71875 c 0.431421,14.695312 0.681589,33.257812 0.555931,41.25 L 92.34375,112.96875 91.643492,96.5625 Z M 93.75,72.5 c 0,-12.71875 0.170812,-22.949218 0.379584,-22.734375 C 95.013412,50.675153 95.539003,95.625 94.665816,95.625 94.094484,95.625 93.75,86.926618 93.75,72.5 Z M 93.984375,9.1479637 C 96.949219,7.7830113 99.375,6.4618904 99.375,6.2121396 99.375,4.6627223 87.606367,2.4327823 79.21875,2.3929002 71.214324,2.3548401 69.124198,2.6807995 64.921875,4.6225274 62.214844,5.8733398 60,7.1860896 60,7.5397491 c 0,0.6169402 5.930723,3.0608309 9.84375,4.0563439 1.03125,0.26236 5.671875,0.37725 10.3125,0.25531 6.834678,-0.179591 9.461526,-0.693148 13.828125,-2.7034393 z"/><circle cx="420.9" cy="296.5" r="45.7"/><path d="M520.5 78.1z"/></g></svg>